<svg width="2048" height="1152" viewBox="0 0 2048 1152" fill="none" xmlns="http://www.w3.org/2000/svg">
  <defs>
    <linearGradient id="bg" x1="0" y1="0" x2="2048" y2="1152" gradientUnits="userSpaceOnUse">
      <stop stop-color="#ffe01b"/>
      <stop offset="0.55" stop-color="#ff7b36"/>
      <stop offset="1" stop-color="#ff344f"/>
    </linearGradient>
    <filter id="shadow" x="186" y="40" width="1676" height="1070" filterUnits="userSpaceOnUse" color-interpolation-filters="sRGB">
      <feFlood flood-opacity="0" result="BackgroundImageFix"/>
      <feColorMatrix in="SourceAlpha" type="matrix" values="0 0 0 0 0 0 0 0 0 0 0 0 0 0 0 0 0 0 127 0" result="hardAlpha"/>
      <feOffset dy="22"/>
      <feGaussianBlur stdDeviation="36"/>
      <feComposite in2="hardAlpha" operator="out"/>
      <feColorMatrix type="matrix" values="0 0 0 0 0.23 0 0 0 0 0.12 0 0 0 0 0.06 0 0 0 0.32 0"/>
      <feBlend mode="normal" in2="BackgroundImageFix" result="effect1_dropShadow"/>
      <feBlend mode="normal" in="SourceGraphic" in2="effect1_dropShadow" result="shape"/>
    </filter>
  </defs>

  <rect width="2048" height="1152" fill="url(#bg)"/>

  <g filter="url(#shadow)">
    <rect x="225" y="54" width="1598" height="1044" rx="28" fill="#ffffff"/>
    <path d="M225 82C225 66.536 237.536 54 253 54H1795C1810.46 54 1823 66.536 1823 82V108H225V82Z" fill="#282828"/>
    <circle cx="237" cy="81" r="5" fill="#ff5f57"/>
    <circle cx="251" cy="81" r="5" fill="#ffbd2e"/>
    <circle cx="265" cy="81" r="5" fill="#28c840"/>
    <rect x="285" y="62" width="204" height="12" rx="6" fill="#3b3b3b"/>

    <rect x="254" y="142" width="1521" height="938" rx="58" fill="#ffffff" stroke="#e7e7e7" stroke-width="2"/>

    <circle cx="354" cy="244" r="43" fill="#111111"/>
    <circle cx="354" cy="244" r="40" fill="#363636"/>
    <circle cx="390" cy="275" r="13" fill="#55e44d" stroke="#ffffff" stroke-width="4"/>
    <text x="428" y="257" fill="#111111" font-family="Arial, Helvetica, sans-serif" font-size="42" font-weight="700">themarcoscoppa</text>
    <circle cx="738" cy="244" r="14" fill="#1da1f2"/>
    <path d="M731 244L736 249L747 237" stroke="#ffffff" stroke-width="4" stroke-linecap="round" stroke-linejoin="round"/>
    <text x="776" y="257" fill="#9a9a9a" font-family="Arial, Helvetica, sans-serif" font-size="38">1h</text>
    <text x="1668" y="248" fill="#9a9a9a" font-family="Arial, Helvetica, sans-serif" font-size="44">...</text>

    <text x="312" y="354" fill="#111111" font-family="Arial, Helvetica, sans-serif" font-size="39">hey, you - just a kind reminder that it's perfectly fine if you need a break. A little one or</text>
    <text x="312" y="402" fill="#111111" font-family="Arial, Helvetica, sans-serif" font-size="39">a big one, it doesn't matter.</text>
    <text x="312" y="476" fill="#111111" font-family="Arial, Helvetica, sans-serif" font-size="39">Give yourself some grace.</text>
    <text x="312" y="525" fill="#111111" font-family="Arial, Helvetica, sans-serif" font-size="39">Go touch some grass if you can.</text>
    <text x="312" y="600" fill="#111111" font-family="Arial, Helvetica, sans-serif" font-size="39">Life is marathon, not a sprint.</text>
    <text x="312" y="649" fill="#111111" font-family="Arial, Helvetica, sans-serif" font-size="39">You got this.</text>

    <path d="M334 705C314 690 287 705 287 731C287 760 334 782 334 782C334 782 381 760 381 731C381 705 354 690 334 705Z" stroke="#4b4b4b" stroke-width="5" fill="none"/>
    <text x="397" y="738" fill="#3f3f3f" font-family="Arial, Helvetica, sans-serif" font-size="32">16</text>
    <circle cx="482" cy="721" r="20" stroke="#4b4b4b" stroke-width="5" fill="none"/>
    <path d="M496 736L509 749" stroke="#4b4b4b" stroke-width="5" stroke-linecap="round"/>
    <text x="526" y="738" fill="#3f3f3f" font-family="Arial, Helvetica, sans-serif" font-size="32">5</text>
    <path d="M603 706C618 692 645 696 655 715M655 715V692M655 715H632M655 745C640 759 613 755 603 736M603 736V759M603 736H626" stroke="#4b4b4b" stroke-width="5" stroke-linecap="round" stroke-linejoin="round"/>
    <text x="675" y="738" fill="#3f3f3f" font-family="Arial, Helvetica, sans-serif" font-size="32">1</text>
    <path d="M727 701L763 719L727 737L735 719L727 701Z" stroke="#4b4b4b" stroke-width="5" fill="none" stroke-linejoin="round"/>

    <line x1="254" y1="788" x2="1775" y2="788" stroke="#e6e6e6" stroke-width="2"/>
    <text x="312" y="866" fill="#111111" font-family="Arial, Helvetica, sans-serif" font-size="36" font-weight="700">Top</text>
    <path d="M313 853V882M313 853L300 867M313 853L326 867M340 882V853M340 882L327 868M340 882L353 868" stroke="#111111" stroke-width="4" stroke-linecap="round" stroke-linejoin="round"/>
    <path d="M435 850L448 863L461 850" stroke="#999999" stroke-width="3" stroke-linecap="round" stroke-linejoin="round"/>
    <text x="1475" y="872" fill="#a0a0a0" font-family="Arial, Helvetica, sans-serif" font-size="38">View activity</text>
    <path d="M1690 851L1705 866L1690 881" stroke="#a0a0a0" stroke-width="4" stroke-linecap="round" stroke-linejoin="round"/>

    <rect x="298" y="922" width="1435" height="116" rx="58" fill="#f7f7f7" stroke="#ededed" stroke-width="2"/>
    <circle cx="356" cy="981" r="43" fill="#111111"/>
    <circle cx="356" cy="981" r="39" fill="#f5bd61"/>
    <text x="428" y="995" fill="#a5a5a5" font-family="Arial, Helvetica, sans-serif" font-size="36">Reply to themarcoscoppa...</text>
    <rect x="1332" y="939" width="140" height="86" rx="43" fill="#111111"/>
    <text x="1367" y="994" fill="#c8f55a" font-family="Arial, Helvetica, sans-serif" font-size="35" font-weight="700">AI</text>
    <path d="M1375 970L1383 978L1391 970L1383 962L1375 970Z" fill="#c8f55a"/>
    <rect x="1501" y="962" width="38" height="38" rx="7" stroke="#969696" stroke-width="5"/>
    <path d="M1508 991L1518 981L1528 991L1537 984" stroke="#969696" stroke-width="5" stroke-linecap="round" stroke-linejoin="round"/>
    <circle cx="1515" cy="973" r="4" fill="#969696"/>
    <rect x="1578" y="962" width="40" height="40" rx="8" stroke="#969696" stroke-width="5"/>
    <text x="1585" y="991" fill="#969696" font-family="Arial, Helvetica, sans-serif" font-size="23" font-weight="700">GIF</text>
    <path d="M1660 1004L1694 970M1694 970H1668M1694 970V996" stroke="#969696" stroke-width="5" stroke-linecap="round" stroke-linejoin="round"/>
  </g>
</svg>
